
<global>
amp_veltrack=0
ampeg_release=0.25
</global>

<group>
group_label=Group_0-45
lpc_hicc1=42
lpc_locc1=0

<region>
hikey=a#2
hivel=127
lokey=a2
lovel=1
lpc=DtnDQUkQM8KYvrdBX3KYwPg10EARtgLBZl1LQEShw79RV1ZAIjxKwJUmhEDnQjPA85aLP2Hlwb9Uspk/L1E4QJolicAe8pQ/ePcSP2tkaT96YPm/w4OkP3wP179c+Is/
lpc_rms=-30.20
offset=735
pitch_keycenter=a#2
sample=BassClarinet_tremolo_PP_A#2.opus
</region>

<region>
hikey=a#3
hivel=127
lokey=a3
lovel=1
lpc=CAoOQbbRgsH07QFB1Jljv76PVUAUjF/AYENXPx8Fxr8JnvA/dAaKv1vxlj/vPpW/3U5aP1OkVL8GpRw/An42PlDnPL9ZL3E9oP86P1CbAb/6xs++3o1RP6BPVr7Ac7y8
lpc_rms=-34.96
pitch_keycenter=a#3
sample=BassClarinet_tremolo_PP_A#3.opus
</region>

<region>
hikey=G5
hivel=127
lokey=a4
lovel=1
lpc=moUvQSbItsECZnFBusrCv6br4b+h34O+1p6cP/f8Cb6qrqO/ygaEP0YZbT9jVyfAaXnOP/qYvj8fkB/A3rzyPw9rk7/PODA9KA0kP1p6Cr+Ebyc/OnGXvX2Pn7865II/
lpc_rms=-28.79
offset=10347
pitch_keycenter=A#4
sample=BassClarinet_tremolo_PP_A#4.opus
</region>

<region>
hivel=127
key=c2
lovel=1
lpc=R6s0Qpp428KCKc9C/34nwvftncDsYlpAJzWAQebFpsEPfH9Ajco7QeHSrsC6TAHB1/IIQYGZiT+y/fu/IgyfwNby7UAyxsDAXiwDQZjJKMEyxhBBLoxKwDKvsr9aOmU/
lpc_rms=-24.99
offset=3145
sample=BassClarinet_tremolo_PP_C2.opus
</region>

<region>
hikey=c3
hivel=127
lokey=b2
lovel=1
lpc=g1P+QRYQdcKf+ANCXTAlwTwzjkE7x0vBvR4lQKMvpsBhx8NACnmSwJOVckAztRzAECVIQA98OcB93fI/AvEUP1d3NsDgGik/VMhcQBXSvb4S08W/vllfv1eU6L2WjxE/
lpc_rms=-27.97
offset=274
pitch_keycenter=c3
sample=BassClarinet_tremolo_PP_C3.opus
</region>

<region>
hikey=c4
hivel=127
lokey=b3
lovel=1
lpc=6a3LQvFSXsNQAClDWpUOwqftn8HuoaVAVyZ5QQIAzcGbnA1AtmuwQVUaP8CzIJbBF/9CQbCi+D/6PiXBp7UIQZpFAUBJQIfAl6UBwaWq5EDh+pFA+/GTwNWckcB1dvdA
lpc_rms=-17.88
pitch_keycenter=c4
sample=BassClarinet_tremolo_PP_C4.opus
</region>

<region>
hikey=d2
hivel=127
lokey=c#2
lovel=1
lpc=X6MAQuXSPcJeDhxBdVdDQdjEx8DQMmzA6p0VQJ+RKEDLPaDArwiUv1/11ECOxSDAoOokwDx7Mj/+6kRAxxawPm1GScDdP34/rMEEQMY0kb8Jgwo/tD4zP8TLF7+MXxS/
lpc_rms=-24.52
offset=827
pitch_keycenter=d2
sample=BassClarinet_tremolo_PP_D2.opus
</region>

<region>
hikey=d3
hivel=127
lokey=c#3
lovel=1
lpc=kyHkQXdvSsIco5xBBimKvuzEDUGOwenAlLqyvqHbkT9pt+Y/vnqLv2p/Bz/buW/AXjc4QDwbx75Zi8M/M/OqvRqn2L8OGoy+5IleQLZXab9oqtS/od0XvBx5i77MsP4+
lpc_rms=-29.24
offset=2089
pitch_keycenter=d3
sample=BassClarinet_tremolo_PP_D3.opus
</region>

<region>
hikey=d4
hivel=127
lokey=c#4
lovel=1
lpc=wBqgQuVQCcPvj3ZCR4PSQCz1yEDMKNTBGiRTQUekx8B7EsxADuslwRI9P0HuZMDARHXxvomxKECd6Fe/JogfQVm9dMGNZp9AC+yxvy+5KkC3Dny/61E0v4SFd8Atrv1A
lpc_rms=-20.55
offset=12141
pitch_keycenter=d4
sample=BassClarinet_tremolo_PP_D4.opus
</region>

<region>
hikey=e2
hivel=127
lokey=d#2
lovel=1
lpc=HgfbQV0YOsKv94xBkpvdQFKd7sBEbXq/fKpmQJ9LyL4u0ITAQD5hQODrBUCWkyzAJYZtPOicrD8GFV0+bqBkPx9D179m8Fa+dUEWQHampr9uD5U/V17HvwjabL4xvgo+
lpc_rms=-27.77
offset=2505
pitch_keycenter=e2
sample=BassClarinet_tremolo_PP_E2.opus
</region>

<region>
hikey=e3
hivel=127
lokey=d#3
lovel=1
lpc=ZUPZQavlLsL4mmVB1HXtvuDE2z/pIWa/j1gMP8164T+yAArACGRWQCUBo75o5yzAHaiUP6YRmT/6eI8+Vfc4QGLubMDk6pI9YO6YPdW82r70miU/UoHAv8FEf78M2vE/
lpc_rms=-28.80
offset=705
pitch_keycenter=e3
sample=BassClarinet_tremolo_PP_E3.opus
</region>

<region>
hikey=e4
hivel=127
lokey=d#4
lovel=1
lpc=93pEQrPoycJNTodCHxLxwK3tTMD+qjLBVLkrQQHErr/+HUXAZv1rPqqOkkAewLrAUyIcvgSUnUDwYE7AV0cbQG/g78AcMa1ABqa6P12dVsCpVB9ABzDuvppYVsB7rKRA
lpc_rms=-20.98
offset=5893
pitch_keycenter=e4
sample=BassClarinet_tremolo_PP_E4.opus
</region>

<region>
hikey=f#2
hivel=127
lokey=f2
lovel=1
lpc=KIRJQpxhuMLZF1FCgNiSwbCktEDzG4/A0wTSQB59RMBkKgI/pMCCQPClA0CXP17AeckiQO2LncASfKJAIudIvsFmmr+52cO/KpWCPxkflb/E6Zc/CZQvvtsIs7+LY3Y/
lpc_rms=-25.24
offset=611
pitch_keycenter=f#2
sample=BassClarinet_tremolo_PP_F#2.opus
</region>

<region>
hikey=f#3
hivel=127
lokey=f3
lovel=1
lpc=1Uj7Qsz8McOAD5xBEen8wOOeMUKghjTAUg+RQD7/NcFqIANBwZ4YQK9rqUAv127BMGERwLirgb5iARNBlmERQfZ+/sA4McnAmA5pQXgaA0HoIKvBQGNbwPExYsGN6qRB
lpc_rms=-16.20
offset=1064
pitch_keycenter=f#3
sample=BassClarinet_tremolo_PP_F#3.opus
</region>

<region>
hikey=f#4
hivel=127
lokey=f4
lovel=1
lpc=X8OVQhSmFMNFvLBCkxEKwRSWgMAttAHBf99hQXoM4sBGhZPAak4CQec9sT+myQ/BXeN1QFLLzUCdcgnBOiPsQDoRy8ACRCw+2VKoP4FokL+WqbNAwsMOwGiFysCH1sxA
lpc_rms=-16.79
offset=19664
pitch_keycenter=f#4
sample=BassClarinet_tremolo_PP_F#4.opus
</region>

<region>
hikey=g#2
hivel=127
lokey=g2
lovel=1
lpc=fsQVQvTCX8J1RWNBMsuKP/nCHUDg0LK/fh0SwFn+e0CWwwjAp0MvQATNqz8haBfAxEaRvnBdwT9lyHq/iqOFQKzwrb+/pO+/97yMPyrm3L4VDo+/WX7WPg0isL/CbZ4/
lpc_rms=-25.28
pitch_keycenter=g#2
sample=BassClarinet_tremolo_PP_G#2.opus
</region>

<region>
hikey=g#3
hivel=127
lokey=g3
lovel=1
lpc=qfSTQssU58Kpn/xBf6+TwEp/nUBcVOZAhbEdQDqRuT2S5g0/dRBJQchiccBKgGPBjk2HwD7M/0A3dwbAQdz8QEUThL4br05AHAKyP29Do8DPQ0HAny3DwAFsPMFJlYxB
lpc_rms=-21.74
offset=228
pitch_keycenter=g#3
sample=BassClarinet_tremolo_PP_G#3.opus
</region>

<region>
hikey=g#4
hivel=127
lokey=g4
lovel=1
lpc=GnzaQXM7VsLLyAdCbPDqwOHNsD7eGTrA1DaWQAMeTT1yI6LA/V3NQFcOZ8CVBgbA9Ys6QP0RZr+Ly4m+UodlQOXvTcBkMbA/lCc/vvWy0b+YgjJAXprHv+jU2L/8HgpA
lpc_rms=-25.06
offset=20910
pitch_keycenter=g#4
sample=BassClarinet_tremolo_PP_G#4.opus
</region>
</group>

<group>
group_label=Group_46-90
lpc_hicc1=84
lpc_locc1=43

<region>
hikey=a#2
hivel=127
lokey=a2
lovel=1
lpc=2D5/QS8TH8I+qhRCLUFywd1Dnj91bpQ/KKF9PZ/cy75Dop+/SbDkPzdQ1z/9BajAQnZbQBIyxT8BS23ACh+MQAJ+k8AKJds/mJSSP0ub0r+Pxbg/xDfRvzi5SD9VT4M+
lpc_rms=-22.49
offset=2327
pitch_keycenter=a#2
sample=Bass_tremolo_MF_A#2.opus
</region>

<region>
hikey=a#3
hivel=127
lokey=a3
lovel=1
lpc=3b9AQRE4AsKWTBVCByixwSQIqkA1L9w/JFeyPMaov7+0kjq/eAYsQDwMq78VMhHA1jpOQLvMgL4hHRTArEJLQD1iVMAwojlACHPnv6nWw71Es/8/dygJwHcyNT/ZpF29
lpc_rms=-24.44
offset=1108
pitch_keycenter=a#3
sample=Bass_tremolo_MF_A#3.opus
</region>

<region>
hikey=G5
hivel=127
lokey=a4
lovel=1
lpc=1BZMQcRN78Gq9+BB+LhXwcGyZECDTg7AEuSSQHGXi8BTLtE+4HhEQAK/LsAmENG+EcfQPzPhWb+GrA++WxdjQNunk8Aoc8g/qYwYPe+vIL8MFNw/DefOvfz43b+W8JY/
lpc_rms=-23.70
offset=3181
pitch_keycenter=A#4
sample=Bass_tremolo_MF_A#4.opus
</region>

<region>
hivel=127
key=c2
lovel=1
lpc=hFzGQa5fjMKBcJ9Ch6EtwsNXykDKrLBAutyLP0k538AX/Mw/v/gxQFoNfD8pp6/A/YVZQPHjCECAwIa/JrkxwCdZhj+jffA//ePHvkfIh8AfxepApberwG8t1z+quqC+
lpc_rms=-20.48
offset=15244
sample=Bass_tremolo_MF_C2.opus
</region>

<region>
hikey=c3
hivel=127
lokey=b2
lovel=1
lpc=Wy6FQQSRIMJlVxNCzKeIwe05mEBRlCm/f7aEv9N35z8fFxfAd6oHQErb8D4aiCjAtC22P5H3Rz901N+/RcFmQIAwl8B1sQ1AlvYfP/fgm78A97g/0KXnv7WzVT+wRYw9
lpc_rms=-21.32
offset=5444
pitch_keycenter=c3
sample=Bass_tremolo_MF_C3.opus
</region>

<region>
hikey=c4
hivel=127
lokey=b3
lovel=1
lpc=nUYRQmJ9tsKhArFCeDInwoIzKEGIrr++dgofwCLPTD8aDwHAUj6sQNglAcAoiJXAxYeAQFG63j3nnBLA38KhQEDtBcHbks5ABvi6vyupWsDxF25A2MkCQAXfnMAQmjpA
lpc_rms=-15.60
offset=3545
pitch_keycenter=c4
sample=Bass_tremolo_MF_C4.opus
</region>

<region>
hikey=d2
hivel=127
lokey=c#2
lovel=1
lpc=TwdtQfLmCcIhfuVBvyobwY3MEEB0lWjAvHWaQAMcJ8C6lJ2+Ijmfv4T6UkCH88C/ScWkvxriqz+c43U/gGpEvzXaC8DvGwNAP3S6PuOIqL+WmvW9OkOgP0SjaL8g+KM+
lpc_rms=-19.65
offset=2171
pitch_keycenter=d2
sample=Bass_tremolo_MF_D2.opus
</region>

<region>
hikey=d3
hivel=127
lokey=c#3
lovel=1
lpc=dRO5QWnmasKDYVhCUd+0wT2fhUAsSYY/y3zDP9BfQ8BG9BDA8DKgQHSolb+AlhbAxUmXP0Gi9j8PeDDAX6SFQEyHqsDeL8s/tq9mP+cbOb/8sZM/LAenv3MH3D8W75C/
lpc_rms=-19.66
offset=1418
pitch_keycenter=d3
sample=Bass_tremolo_MF_D3.opus
</region>

<region>
hikey=d4
hivel=127
lokey=c#4
lovel=1
lpc=Z0oMQuxvn8LezYdCR2W6waW1zj80ZjC/TGIQQIq/NcACQ0bA3gu+QFsMm794dYm/AUknwCXSIUBBbXM+jdQpQD+SA8Hd8YVAeto6QEs1dcCGg8S+cnHQQH55DsGjDbdA
lpc_rms=-17.03
offset=2323
pitch_keycenter=d4
sample=Bass_tremolo_MF_D4.opus
</region>

<region>
hikey=e2
hivel=127
lokey=d#2
lovel=1
lpc=Ll+EQaWdIMK3rQVCBZQGweXXBMAxa6W+ZLJkQBI4C8DvvQzAJDofQHZF9D/IamXAAob1vrICYEBoHdK/RZmJPCS3ib/0q54/gV+1vojgsrnmaX2/B3u1P/ZpVb4faGW+
lpc_rms=-20.34
offset=6473
pitch_keycenter=e2
sample=Bass_tremolo_MF_E2.opus
</region>

<region>
hikey=e3
hivel=127
lokey=d#3
lovel=1
lpc=5QWuQZkeV8KE3kVCx6S8wbrhG0ELmcPA4Of1QITHBcE69GlAmki+Pni9eL8RTsK/0bl/QEdCFMB+w0M/RcQfQK/5pcDR3wxA5BcVPw9zcb97hKY/Bi/bPfTLM8Dbxvw/
lpc_rms=-19.25
offset=2643
pitch_keycenter=e3
sample=Bass_tremolo_MF_E3.opus
</region>

<region>
hikey=e4
hivel=127
lokey=d#4
lovel=1
lpc=hX3+QWzQjsIbcHdCR13XwRBiOEAaEcQ+H1n5QJcZ1MA515Y/DYCMP3NrHMDXpzO/OqkEP4HEJkAO+UXAtReTQN0scsDHuZA/9+jzP5BHr8DQ3GlAX73vPxtU0sC7FqVA
lpc_rms=-15.28
offset=3170
pitch_keycenter=e4
sample=Bass_tremolo_MF_E4.opus
</region>

<region>
hikey=f#2
hivel=127
lokey=f2
lovel=1
lpc=k8y5QRNxZ8JPgFFCV86RwXxJ77/+DIw/JOScQFh5UMA5kkLAL2kwQJeChEBb8t3AZ7fPP1EnbEAdOVTAYzkkQDPKfcDiJVZAqRHfv+KHlj6Pibg+Fvxkv2W6AUDFTnm/
lpc_rms=-18.68
offset=3633
pitch_keycenter=f#2
sample=Bass_tremolo_MF_F#2.opus
</region>

<region>
hikey=f#3
hivel=127
lokey=f3
lovel=1
lpc=QnKNQsQoMMOahxRD1IRBwovIE0Fr/nPASUH3v+o9xkCjPxHB2uVyQfvdfcGZlzZAy1VMQDOyjsBEellAAiDnQExk88B92Je/GvoqQGtsQD+1XiPABzbwQN0wecGWbxhB
lpc_rms=-11.76
offset=2569
pitch_keycenter=f#3
sample=Bass_tremolo_MF_F#3.opus
</region>

<region>
hikey=f#4
hivel=127
lokey=f4
lovel=1
lpc=3tcjQnHHwMLmvqVCp/zmweG4vj5Jhtq/V8bGQGKZB8ALsDvAWbWcQEU4D8AWGfW/TNUHQIRLkT/GGAU9HBY7PhO2l8CKJxc/Tx5/QNcCJsBN+RtAuFj/P+DKFMGLINhA
lpc_rms=-11.69
offset=8778
pitch_keycenter=f#4
sample=Bass_tremolo_MF_F#4.opus
</region>

<region>
hikey=g#2
hivel=127
lokey=g2
lovel=1
lpc=G5m4QR+CcML3KmpCZprCwQEvDkCrcKM/M2+DvFAj6b6/xdS/oWAqQL39JT/raqHAiDFyQGa91j/pbI3A6C+TQCWyacCZydM/4aSUv9LfFj+jefs/hwpFwEQQzD95xwO+
lpc_rms=-18.91
offset=4461
pitch_keycenter=g#2
sample=Bass_tremolo_MF_G#2.opus
</region>

<region>
hikey=g#3
hivel=127
lokey=g3
lovel=1
lpc=MG0XQjZ3t8KfNJRCOuaywXx5NkBvibY/z5nLv3oVoMABnZ9Aiiz1QB6rG8GKUxjAOHsuP4Td0ECR9NzAQFIgQY6op8BfzbzA+eoXQdHGhMBr+iHA/l+zQNTd5sBkGW9A
lpc_rms=-14.84
offset=890
pitch_keycenter=g#3
sample=Bass_tremolo_MF_G#3.opus
</region>

<region>
hikey=g#4
hivel=127
lokey=g4
lovel=1
lpc=xSVzQV86DcKfHOlBNxcNwbcPyr5Z8zC+LbOUP74stz8cCYTAFl+oQHvrgMCAZgi/WeohQGePj78ksTu/joddQLUCV8ATJBw/ZzxnPywD+b9kbOI/ESrHPy1dY8C5XvI/
lpc_rms=-21.61
offset=10062
pitch_keycenter=g#4
sample=Bass_tremolo_MF_G#4.opus
</region>
</group>

<group>
group_label=Group_91-127
lpc_hicc1=127
lpc_locc1=85

<region>
hikey=a#2
hivel=127
lokey=a2
lovel=1
lpc=l28nQXZtzcG1usBB95AUwadeWT+08CXANazVQOODz8CKeqw/5OzOP05k9z4/lj3Alk77P2mMej9RxwHAzHEhQAugHsAwq3c+p12OPvRnSL01Wp0/SZolvz1Ppr+v+Yo/
lpc_rms=-16.61
offset=2265
pitch_keycenter=a#2
sample=Bass_tremolo_FF_A#2.opus
</region>

<region>
hikey=a#3
hivel=127
lokey=a3
lovel=1
lpc=1/QNQSrmp8GqPqdBacw+wUE2s0AJIxTAoG8yQBb+iMD97y5A/qehvUORHb+F7Q2/n++9PyKzDr/ObBC9xp4GP3dLOL/FOmY+lJZIvqeJSrzZRWw/k06Gv6A1Bz+6iIi+
lpc_rms=-18.59
offset=1308
pitch_keycenter=a#3
sample=Bass_tremolo_FF_A#3.opus
</region>

<region>
hikey=G5
hivel=127
lokey=a4
lovel=1
lpc=DRIcQZb6qsG8h4ZB80CywAbWpj8vgLe/8lxSQOGiYMCDvIk/nuahP90Y67+VNt4+B6BZveRJPD+hJfS+g7uxP8AZmr8gaIG/Y8ygP1GQgb93XRJAIfuRv75uj78brIg/
lpc_rms=-19.74
offset=2162
pitch_keycenter=A#4
sample=Bass_tremolo_FF_A#4.opus
</region>

<region>
hivel=127
key=c2
lovel=1
lpc=0vsfQZDJxcELhcpBhaliwXv0mEBP3eq/VfERQP6aej6YJbTAgmbBQLtBLsCfez0/girdvn4rmz/N08y+28wKv8mRZb80GIw/gO+SP+7DVsDlE0hAeYCsvlPKwb+IHlY/
lpc_rms=-14.25
offset=6243
sample=Bass_tremolo_FF_C2.opus
</region>

<region>
hikey=c3
hivel=127
lokey=b2
lovel=1
lpc=S6IwQYSV4MFT0e1B7ryKwaYHzkDXo1TAKL2pQD5OtMBAsFdA2HzWvxvDXD9yYN+/oc4ZQPNEiL++JmE/4Q8Tv8lSkb+nnpI/OSPevvrkEj/pUYe/ye9rPg0eIj+BFKa+
lpc_rms=-16.90
offset=1360
pitch_keycenter=c3
sample=Bass_tremolo_FF_C3.opus
</region>

<region>
hikey=c4
hivel=127
lokey=b3
lovel=1
lpc=BwivQaipVcJFxkRCp86vwe1hL0HdXSbBooQNQQGeIcFDFbFAP6YdQEgRfcCXMRBA1G8BwGvgqz9rclPAf3h3QHjJ5j1vY5o+fo5hwKmHmL6Cs2BAyTaOPvSoMcCrA+g/
lpc_rms=-12.07
offset=5975
pitch_keycenter=c4
sample=Bass_tremolo_FF_C4.opus
</region>

<region>
hikey=d2
hivel=127
lokey=c#2
lovel=1
lpc=no4hQYkUvcGpL7dBLDhJwaCCpkAFInLAclauQJmWHMA2ly/AZezYPyHGrT4A+l4+CQBlv2a83j9PsS2/LVUjvy0kh7+A2l4/XnJvP245eL9q6pG/NpU/QFioLsC05HY/
lpc_rms=-16.03
offset=2144
pitch_keycenter=d2
sample=Bass_tremolo_FF_D2.opus
</region>

<region>
hikey=d3
hivel=127
lokey=c#3
lovel=1
lpc=5fBXQdOaCcKCEQhCxOh6wRFcYEDGlEPAyGK2QO3BfMA0CZW/q+1PQE+AE8Ai9MK7v5uvP5BzJz8ixL6/0CjTP6VmRMB4fg1AlHMbvizyGr2fpUe9VjCjvzP6xD85fge/
lpc_rms=-17.28
offset=836
pitch_keycenter=d3
sample=Bass_tremolo_FF_D3.opus
</region>

<region>
hikey=d4
hivel=127
lokey=c#4
lovel=1
lpc=wXe0QZmOVcI8RDRCxpeKwblzK0EJdWfBkCFwQXMeW8FDzvVAIdVBwJ3ouT/5s+G/oJ3GPxoSbj+IDdg+ydzDvxqJMb9p9Nw+aK7tvwN+nD8DbF9A3gVhPz4S9cCeRZRA
lpc_rms=-11.75
offset=2507
pitch_keycenter=d4
sample=Bass_tremolo_FF_D4.opus
</region>

<region>
hikey=e2
hivel=127
lokey=d#2
lovel=1
lpc=/hsqQfZ/0cHo+ctB6HQ4wRIHnD+6P6m/OnXBQDdEhMDEHtK/QxBsP1fQDECH6iDARpSwPsmx6T+cZUM/+681wN0pQL9JHjBAzhulvuzE5L9Lcf0+OozzP1C097/HiBw/
lpc_rms=-16.06
offset=1821
pitch_keycenter=e2
sample=Bass_tremolo_FF_E2.opus
</region>

<region>
hikey=e3
hivel=127
lokey=d#3
lovel=1
lpc=2jidQQv3QMJYCC5CPkyPwRX3DkGCY0DBch4jQTJnsMBxlto/Z+a0QKJlNsFJNp1AB9s2QOMefL3i7Oy/mJeHPlUom79D4hNACXc8P+P8EcCxZu6+biiRP/q+Lr/4l9E+
lpc_rms=-13.82
offset=938
pitch_keycenter=e3
sample=Bass_tremolo_FF_E3.opus
</region>

<region>
hikey=e4
hivel=127
lokey=d#4
lovel=1
lpc=t36iQX5JUsIVZlNCvirawU7UFUFsj63Ar4wRQfEaIMG2k0ZA/O0TQNFUsL8WkKC/TnnrPx8ydT3Yq6G/t8sdQAN5KMD5QaG/TgsgQELGsT7nYcm+MpEWP5NMdcBzhT9A
lpc_rms=-13.36
offset=5946
pitch_keycenter=e4
sample=Bass_tremolo_FF_E4.opus
</region>

<region>
hikey=f#2
hivel=127
lokey=f2
lovel=1
lpc=d083QQtI6MHCw/lBpMSYwbbgAkHqCcjAhE0UQSNy98AQztI/mRRHPUhjAEC80krA5KXJP+COoz/NJh++hpf8v3xTcT7E6X4/pJUJP3BVBsBNfG4+TqZXQMhgaMBo9rI/
lpc_rms=-13.94
offset=8064
pitch_keycenter=f#2
sample=Bass_tremolo_FF_F#2.opus
</region>

<region>
hikey=f#3
hivel=127
lokey=f3
lovel=1
lpc=P1GwQUUDVsK4MzpCumeJwbIPwEDrmuDAHi+oQBldcMAenYs/ZHE0QNebOcDR8oc9cymrvtMIwD/X4Xq/elSRP6p+XL8xRwO9sSeIPwocVD14cX7Ay5qHQOu+gb8UXoq9
lpc_rms=-9.62
offset=2334
pitch_keycenter=f#3
sample=Bass_tremolo_FF_F#3.opus
</region>

<region>
hikey=f#4
hivel=127
lokey=f4
lovel=1
lpc=u2oQQhvolMLDZD1CDJHpwEF/Ub4vCUxA3XCNwNY8i76ZSCDAdPsAQHR4xUBhNL7AwnnAP7l69z9vO2bAGiNlQK05mcDpEDpA//O1v6aw1D7kF5ZAW5NgwEuNxcCv6tZA
lpc_rms=-9.45
offset=8204
pitch_keycenter=f#4
sample=Bass_tremolo_FF_F#4.opus
</region>

<region>
hikey=g#2
hivel=127
lokey=g2
lovel=1
lpc=k6EpQT4tzsFsA89BMrlYwUI8V0DPghDAqbe6QGfPo8CBd58+vBlGP2M6uj/InGDASUkqQA6OYT8xO+C/uQAZPx5TNL8UpHk/vQWZv+2Mhj5EW6A+jOaxP0gQB8DTHW8/
lpc_rms=-13.26
offset=8017
pitch_keycenter=g#2
sample=Bass_tremolo_FF_G#2.opus
</region>

<region>
hikey=g#3
hivel=127
lokey=g3
lovel=1
lpc=YAPcQZC9icIhKnBCuY6zwXVcO0EB30zBxR+1QKdhHMA3i9M/5Ay3QEbRLsH//jBAYKGKQH25LUAwYOzA097kP2rp6j9bNjm/m49aQIyFicBAFjm/v5BIvbGhgUCbexXA
lpc_rms=-11.69
offset=889
pitch_keycenter=g#3
sample=Bass_tremolo_FF_G#3.opus
</region>

<region>
hikey=g#4
hivel=127
lokey=g4
lovel=1
lpc=D0ZXQayrAsL7QO5BG81IwbMGY0C68JXA+JP+QCrp0cCBUto/PZgrQDgiY8C1aLc9oVu5P6115zyL7B+/idg6QNjmjcD64x1A/Dw6PhvQGsAxjTJAqrXXvDFtBcAsdZQ/
lpc_rms=-19.04
offset=9952
pitch_keycenter=g#4
sample=Bass_tremolo_FF_G#4.opus
</region>
</group>